<!-- icon666.com - MILLIONS vector ICONS FREE --><svg id="Layer_1" viewBox="0 0 512 512" xmlns="http://www.w3.org/2000/svg" data-name="Layer 1"><path d="m68 465a47.05 47.05 0 0 0 46.989 47h282.03a47.05 47.05 0 0 0 46.981-47v-322.229a11.953 11.953 0 0 0 -3.538-8.488l-130.726-130.772a12.076 12.076 0 0 0 -8.492-3.511h-186.259a47.051 47.051 0 0 0 -46.985 47zm335.01-334.228h-64.26a29.192 29.192 0 0 1 -29.156-29.17v-64.26l93.412 93.431zm-263.822 48.628a12 12 0 0 1 -11.984-12v-92.4a12 12 0 0 1 11.984-12h92.421a12 12 0 0 1 11.983 12v92.4a12 12 0 0 1 -11.983 12zm12.03-92.4h68.361v68.4h-68.361zm-32.034 158.4a12.011 12.011 0 0 1 12.031-12h249.571a12 12 0 1 1 0 24h-249.571a12.012 12.012 0 0 1 -12.031-12zm0 64.8a12.007 12.007 0 0 1 12.031-12h249.571a12 12 0 1 1 0 24h-249.571a12.008 12.008 0 0 1 -12.031-12zm0 64.8a12.007 12.007 0 0 1 12.031-12h249.571a12 12 0 1 1 0 24h-249.571a12.008 12.008 0 0 1 -12.031-12zm0 64.8a12.008 12.008 0 0 1 12.031-12h249.571a12 12 0 1 1 0 24h-249.571a12.007 12.007 0 0 1 -12.031-12z" fill-rule="evenodd" fill="#000000" style="fill: rgb(255, 255, 255);"></path></svg>