<!-- icon666.com - MILLIONS vector ICONS FREE --><svg id="Capa_1" enable-background="new 0 0 512 512" viewBox="0 0 512 512" xmlns="http://www.w3.org/2000/svg"><g><path d="m192.8 195.877v-36.19c-31.462 4.881-57.996 24.864-71.939 52.282l34.417 11.183z" fill="#000000" style="fill: rgb(255, 255, 255);"></path><path d="m294.739 211.969c-13.943-27.418-40.477-47.401-71.939-52.282v36.19l37.522 27.275z" fill="#000000" style="fill: rgb(255, 255, 255);"></path><path d="m187.856 283.464h39.888l12.314-37.953-32.258-23.449-32.258 23.449z" fill="#000000" style="fill: rgb(255, 255, 255);"></path><path d="m111.572 240.495c-.811 5.051-1.238 10.229-1.238 15.505 0 26.957 11.002 51.391 28.75 69.053l21.244-29.228-14.321-44.141z" fill="#000000" style="fill: rgb(255, 255, 255);"></path><path d="m464.867 64.267h-32.133c-9.462 0-17.133 7.671-17.133 17.133v30c0 8.284-6.716 15-15 15s-15-6.716-15-15v-30c0-9.462-7.671-17.133-17.133-17.133h-321.335c-25.989 0-47.133 21.144-47.133 47.133v289.2c0 25.989 21.144 47.134 47.133 47.134h321.333c9.462 0 17.133-7.671 17.133-17.133v-30c0-8.284 6.716-15 15-15s15 6.716 15 15v30c0 9.462 7.671 17.133 17.133 17.133h32.133c25.989 0 47.133-21.145 47.133-47.134v-289.2c.002-25.989-21.142-47.133-47.131-47.133zm-257.067 319.199c-70.285 0-127.467-57.181-127.467-127.466s57.182-127.467 127.467-127.467 127.467 57.182 127.467 127.467-57.182 127.466-127.467 127.466zm207.8-63.199c0 8.284-6.716 15-15 15s-15-6.716-15-15v-32.133c0-8.284 6.716-15 15-15s15 6.716 15 15zm0-96.401c0 8.284-6.716 15-15 15s-15-6.716-15-15v-32.133c0-8.284 6.716-15 15-15s15 6.716 15 15z" fill="#000000" style="fill: rgb(255, 255, 255);"></path><path d="m255.273 295.825 21.244 29.228c17.748-17.662 28.75-42.096 28.75-69.053 0-5.276-.427-10.454-1.238-15.505l-34.434 11.189z" fill="#000000" style="fill: rgb(255, 255, 255);"></path><path d="m184.594 313.464-21.262 29.253c13.34 6.869 28.459 10.75 44.468 10.75s31.128-3.881 44.468-10.75l-21.262-29.253z" fill="#000000" style="fill: rgb(255, 255, 255);"></path></g></svg>