<!-- icon666.com - MILLIONS vector ICONS FREE --><svg id="Layer_1" viewBox="0 0 32 32" xmlns="http://www.w3.org/2000/svg"><path d="m25.264 1.008c-.524 0-1.049.197-1.443.592l-2.248 2.248 6.58 6.578 2.246-2.248c.788-.788.788-2.099 0-2.887l-3.692-3.691c-.394-.395-.919-.592-1.443-.592zm-5.106 4.254-16.269 16.27c-.109.109-.191.243-.242.391-.729 2.187-2.035 5.759-2.6 7.803-.201.73.45 1.41 1.188 1.24 2.432-.562 5.687-1.896 7.84-2.613.146-.048.281-.129.392-.236l16.269-16.275z" fill="#000000" style="fill: rgb(255, 255, 255);"></path></svg>