<!-- icon666.com - MILLIONS vector ICONS FREE --><svg fill="none" viewBox="0 0 24 24" xmlns="http://www.w3.org/2000/svg"><path clip-rule="evenodd" d="m8.86493 3.35075c.07668-.76681.72192-1.35075 1.49257-1.35075h3.285c.7706 0 1.4159.58394 1.4926 1.35074l.1057 1.05771c.0179.17818.1302.33211.2908.41127.319.1572.626.33504.9193.53177.1489.09989.3386.12032.5021.04657l.9699-.43773c.7024-.31699 1.5308-.05016 1.9161.61722l1.6425 2.84492c.3853.66739.2022 1.51816-.4235 1.96793l-.8646.6215c-.1453.1045-.2225.2785-.2107.4571.0115.1755.0173.3526.0173.531s-.0058.3555-.0174.531c-.0117.1786.0655.3526.2108.4571l.8646.6215c.6257.4498.8088 1.3006.4235 1.9679l-1.6425 2.845c-.3853.6674-1.2137.9342-1.9161.6172l-.97-.4377c-.1634-.0738-.3531-.0534-.502.0465-.2933.1967-.6003.3746-.9193.5318-.1606.0791-.2729.2331-.2908.4112l-.1057 1.0578c-.0767.7668-.722 1.3507-1.4926 1.3507h-3.285c-.77065 0-1.41589-.5839-1.49257-1.3507l-.10577-1.0577c-.01782-.1782-.13013-.3322-.29075-.4113-.31902-.1572-.62605-.3351-.91934-.5318-.1489-.0999-.33862-.1203-.50205-.0466l-.96999.4378c-.70241.317-1.53074.0502-1.91606-.6172l-1.64251-2.845c-.38532-.6673-.20223-1.5181.4235-1.9679l.86461-.6215c.14529-.1045.22247-.2785.21077-.4571-.01151-.1755-.01735-.3526-.01735-.531s.00584-.3555.01735-.531c.0117-.1785-.06548-.3526-.21077-.457l-.86461-.6216c-.62573-.44977-.80882-1.30054-.4235-1.96793l1.64251-2.84492c.38532-.66739 1.21365-.93422 1.91606-.61722l.96997.43774c.16343.07375.35315.05332.50206-.04656.29329-.19674.60032-.37459.91935-.5318.16062-.07915.27293-.23309.29075-.41126zm3.13507 12.64925c2.2091 0 4-1.7909 4-4 0-2.20914-1.7909-4-4-4-2.20914 0-4 1.79086-4 4 0 2.2091 1.79086 4 4 4z" fill="rgb(0,0,0)" fill-rule="evenodd" style="fill: rgb(255, 255, 255);"></path></svg>