<!-- icon666.com - MILLIONS vector ICONS FREE --><svg id="Cart_Full" enable-background="new 0 0 32 32" viewBox="0 0 32 32" xmlns="http://www.w3.org/2000/svg"><g><path d="m29.34 11.08c-.58-.73-1.45-1.15-2.38-1.15h-.561l.301-1.699c.047-.262-.013-.531-.166-.749-.152-.218-.385-.366-.647-.411l-7.495-1.309c-.544-.096-1.061.267-1.157.81l-.599 3.358h-1.019l.633-3.53c.19-1.09 1.23-1.82 2.31-1.62l3.99.7-.47-2.65c-.1-.55-.62-.91-1.16-.81l-10.04 1.75c-.27.05-.5.19-.65.41s-.21.49-.17.75l.875 5h-1.995l-.86-3.73c-.1-.45-.5-.77-.97-.77h-4.11c-.55 0-1 .45-1 1s.45 1 1 1h3.31l3.14 13.6c.32 1.39 1.54 2.35 2.97 2.35h12.83c1.43 0 2.65-.96 2.97-2.35l1.7-7.39c.21-.9 0-1.84-.58-2.56zm-5.87 8.46h-8.98c-.55 0-1-.45-1-1 0-.56.45-1 1-1h8.98c.56 0 1 .44 1 1 0 .55-.44 1-1 1zm2.25-4.06h-13.48c-.55 0-1-.45-1-1 0-.56.45-1 1-1h13.48c.55 0 1 .44 1 1 0 .55-.45 1-1 1z" fill="#000000" style="fill: rgb(255, 255, 255);"></path><path d="m12.845 24.954c-1.395 0-2.53 1.132-2.53 2.522 0 1.392 1.135 2.523 2.53 2.523s2.53-1.132 2.53-2.523c0-1.39-1.135-2.522-2.53-2.522z" fill="#000000" style="fill: rgb(255, 255, 255);"></path><path d="m24.823 24.954c-1.396 0-2.53 1.132-2.53 2.522 0 1.392 1.135 2.523 2.53 2.523s2.53-1.132 2.53-2.523c.001-1.39-1.134-2.522-2.53-2.522z" fill="#000000" style="fill: rgb(255, 255, 255);"></path></g></svg>